<svg xmlns="http://www.w3.org/2000/svg" version="1.1" xmlns:xlink="http://www.w3.org/1999/xlink" xmlns:svgjs="http://svgjs.dev/svgjs" width="64" height="46"><svg width="64" height="46" viewBox="0 0 64 46" fill="none" xmlns="http://www.w3.org/2000/svg">
<path d="M30.2032 0.482124C31.189 0.482124 32.1955 0.575566 33.2224 0.762448C34.2699 0.928567 35.2147 1.27119 36.0568 1.79031C36.8989 2.30943 37.5972 3.04658 38.1518 4.00176C38.7064 4.95694 38.9939 6.20283 39.0144 7.73943C38.9734 9.19297 38.6242 10.4908 37.9669 11.6328C37.3302 12.7749 36.2519 13.6366 34.732 14.2181L39.7847 22.5344H33.4381L29.2481 15.0902H26.5677V22.5344H20.9914V0.482124H30.2032ZM30.234 10.1378C31.2815 10.1378 32.0825 9.9405 32.6371 9.54597C33.2121 9.15144 33.4997 8.58041 33.4997 7.83287C33.4997 7.37605 33.4175 7.01266 33.2532 6.74272C33.0889 6.47278 32.863 6.26513 32.5754 6.11978C32.2879 5.95366 31.949 5.84983 31.5587 5.8083C31.1685 5.74601 30.7577 5.71486 30.3264 5.71486H26.5677V10.1378H30.234Z" fill="#FFA600"></path>
<path d="M9.53279 0.482124C10.8062 0.482124 11.9667 0.617095 13.0142 0.887037C14.0822 1.13622 14.9962 1.57228 15.7561 2.19522C16.5366 2.7974 17.1323 3.59685 17.543 4.59356C17.9744 5.59027 18.19 6.82578 18.19 8.30008C18.1695 9.81591 17.8717 11.1137 17.2966 12.1935C16.742 13.2733 15.9821 14.1454 15.0167 14.8099C14.2568 15.3497 13.3839 15.7443 12.398 15.9935C11.4121 16.2219 10.3852 16.3361 9.31713 16.3361H5.95898V22.5344H0.38261V0.482124H9.53279ZM9.31713 11.3214C10.3852 11.3214 11.2067 11.0722 11.7818 10.5738C12.3775 10.0547 12.6855 9.34871 12.7061 8.45582C12.7266 7.5214 12.4699 6.83616 11.9359 6.4001C11.4018 5.94327 10.5187 5.71486 9.28632 5.71486H5.95898V11.3214H9.31713Z" fill="#FFA600"></path>
<path fill-rule="evenodd" clip-rule="evenodd" d="M20.846 0.335205H30.2032C31.1976 0.335205 32.2121 0.429415 33.2465 0.617558C34.3108 0.786531 35.2733 1.13526 36.1325 1.66487C36.9972 2.19796 37.7118 2.95366 38.2771 3.92739C38.8484 4.91143 39.139 6.18477 39.1598 7.73745L39.1598 7.74054L39.1597 7.74363C39.118 9.21878 38.7634 10.5407 38.0931 11.7058C37.4592 12.8424 36.4051 13.7019 34.947 14.2912L40.0445 22.6813H33.3536L29.1636 15.2371H26.7131V22.6813H20.846V0.335205ZM21.1367 0.629047V22.3875H26.4224V14.9433H29.3326L33.5226 22.3875H39.5249L34.5162 14.1435L34.6806 14.0806C36.1769 13.5082 37.2242 12.6658 37.8404 11.5607L37.8413 11.559C38.4847 10.441 38.8282 9.16858 38.8691 7.73828C38.8484 6.21922 38.5639 5.00182 38.0265 4.07613C37.4827 3.1395 36.8006 2.4209 35.9812 1.91575C35.1565 1.40739 34.23 1.07096 33.1999 0.907596L33.1967 0.907083C32.1777 0.721658 31.1799 0.629047 30.2032 0.629047H21.1367ZM26.4224 5.56794H30.3264C30.7633 5.56794 31.1804 5.59939 31.5777 5.66259C31.9813 5.70597 32.3378 5.81402 32.644 5.99019C32.9535 6.14739 33.1988 6.37298 33.377 6.66572C33.5603 6.96688 33.645 7.3602 33.645 7.83287C33.645 8.62497 33.3369 9.24296 32.7197 9.66683C32.1307 10.0854 31.2956 10.2847 30.234 10.2847H26.4224V5.56794ZM26.7131 5.86178V9.99085H30.234C31.2667 9.99085 32.0334 9.79579 32.5534 9.42582L32.5554 9.42438C33.0877 9.0592 33.3544 8.5354 33.3544 7.83287C33.3544 7.39189 33.2748 7.05845 33.1295 6.81972C32.9797 6.57371 32.7744 6.38462 32.5104 6.25119L32.5068 6.24936L32.5033 6.24734C32.2362 6.09301 31.9174 5.9942 31.5435 5.95442L31.5398 5.95402L31.5361 5.95343C31.154 5.89243 30.7508 5.86178 30.3264 5.86178H26.7131Z" fill="#FFA600"></path>
<path fill-rule="evenodd" clip-rule="evenodd" d="M0.237305 0.33519H9.53281C10.8156 0.33519 11.9878 0.471072 13.0485 0.744237C14.134 0.997714 15.0676 1.44212 15.846 2.07972C16.6474 2.69851 17.2573 3.51869 17.6767 4.53579C18.118 5.55621 18.3354 6.81283 18.3354 8.30007L18.3354 8.30208C18.3146 9.83564 18.0132 11.1575 17.425 12.2622C16.86 13.3621 16.0845 14.2524 15.0994 14.9307C14.3238 15.4816 13.4344 15.8829 12.4333 16.136L12.4305 16.1367C11.4334 16.3677 10.3955 16.483 9.31715 16.483H6.10433V22.6813H0.237305V0.33519ZM0.527953 0.629032V22.3874H5.81368V16.1891H9.31715C10.3744 16.1891 11.3899 16.0761 12.3642 15.8505C13.3338 15.6053 14.1895 15.2179 14.9332 14.6896L14.935 14.6884C15.8798 14.038 16.6238 13.1846 17.1676 12.1258L17.1686 12.1238C17.7302 11.0694 18.0243 9.7963 18.0447 8.29904C18.0446 6.83868 17.8308 5.625 17.4099 4.65243L17.4089 4.65006C17.007 3.67502 16.4264 2.89716 15.668 2.312L15.6663 2.31069L15.6646 2.30933C14.9238 1.70208 14.0306 1.27494 12.9815 1.03018L12.9783 1.02943C11.9444 0.762989 10.7962 0.629032 9.53281 0.629032H0.527953ZM5.81368 5.56793H9.28634C10.5286 5.56793 11.4545 5.79664 12.0285 6.28685C12.6079 6.76076 12.8725 7.49682 12.8514 8.45907C12.83 9.38781 12.5075 10.1353 11.8767 10.6851L11.8764 10.6854C11.266 11.2144 10.4058 11.4683 9.31715 11.4683H5.81368V5.56793ZM6.10433 5.86177V11.1744H9.31715C10.3644 11.1744 11.1473 10.9301 11.687 10.4625C12.2475 9.974 12.5411 9.30939 12.5608 8.45239C12.5807 7.54661 12.3323 6.91261 11.8446 6.51438L11.842 6.51227C11.3479 6.08957 10.5079 5.86177 9.28634 5.86177H6.10433Z" fill="#FFA600"></path>
<path d="M55.8544 26.1709C57.0263 26.1709 58.0587 26.359 58.9515 26.7351C59.8444 27.1112 60.5978 27.6378 61.2116 28.3148C61.8441 28.973 62.3184 29.7723 62.6346 30.7126C62.9509 31.6529 63.109 32.6966 63.109 33.8437C63.109 35.0097 62.9509 36.0628 62.6346 37.0031C62.337 37.9246 61.8813 38.7239 61.2674 39.4009C60.6536 40.0779 59.8909 40.595 58.9794 40.9524C58.0866 41.3097 57.0449 41.4883 55.8544 41.4883C54.6825 41.4883 53.6501 41.3097 52.7573 40.9524C51.8644 40.5762 51.111 40.0591 50.4972 39.4009C49.9019 38.7239 49.4462 37.9152 49.13 36.9749C48.8323 36.0346 48.6835 34.9909 48.6835 33.8437C48.6835 32.6966 48.8323 31.6529 49.13 30.7126C49.4462 29.7723 49.9112 28.973 50.5251 28.3148C51.1389 27.6378 51.8923 27.1112 52.7852 26.7351C53.678 26.359 54.7011 26.1709 55.8544 26.1709ZM55.8544 38.6957C56.5799 38.6957 57.1937 38.5734 57.6959 38.3289C58.2168 38.0657 58.6353 37.7177 58.9515 37.2852C59.2864 36.8527 59.5282 36.3449 59.677 35.7619C59.8444 35.179 59.9281 34.549 59.9281 33.8719C59.9281 33.1949 59.8444 32.5649 59.677 31.982C59.5282 31.3802 59.2864 30.863 58.9515 30.4305C58.6353 29.9979 58.2168 29.6594 57.6959 29.415C57.1937 29.1705 56.5799 29.0482 55.8544 29.0482C55.1475 29.0482 54.5337 29.1705 54.0129 29.415C53.5106 29.6594 53.0921 29.9979 52.7573 30.4305C52.441 30.863 52.1992 31.3802 52.0318 31.982C51.883 32.5649 51.8086 33.1949 51.8086 33.8719C51.8086 34.549 51.883 35.179 52.0318 35.7619C52.1992 36.3449 52.441 36.8527 52.7573 37.2852C53.0921 37.7177 53.5106 38.0657 54.0129 38.3289C54.5337 38.5734 55.1475 38.6957 55.8544 38.6957Z" fill="#FFA600"></path>
<path d="M41.863 38.5546V26.4248H45.0439V38.5546H47.0249V45.635H43.8999V41.2909H32.8739V26.4248H36.0268V38.5546H41.863Z" fill="#FFA600"></path>
<path d="M26.7139 19.5574H25.795L25.7174 20.4729C25.695 20.7372 25.5581 20.953 25.2615 21.1356C24.9436 21.3313 24.4918 21.4474 24.037 21.4474C23.5544 21.4474 22.9481 21.3276 22.4777 21.0951C21.9912 20.8546 21.8564 20.6097 21.8378 20.4451L21.7375 19.5574H20.8441H18.8751H17.7961L17.878 20.6332C18.0041 22.291 18.5906 23.6699 19.7776 24.57L19.7776 24.5701L19.7855 24.576C20.92 25.4186 22.3699 25.7887 24.037 25.7887C24.6781 25.7887 25.2868 25.7314 25.8572 25.6108L25.6791 25.8988L21.2144 33.1182V26.4248V25.4248H20.2144H17.0336H16.0336V26.4248V41.2909V42.2909H17.0336H19.9912H20.4945L20.7943 41.8867C22.821 39.1548 24.2443 36.9706 25.2227 35.334V41.2909V42.2909H26.2227H29.4035H30.4035V41.2909V26.4248V25.4248H29.4035H26.5555C27.1612 25.2276 27.7151 24.9466 28.2087 24.573C29.4102 23.6786 30.0198 22.3054 30.1671 20.6458L30.2637 19.5574H29.171H26.7139Z" fill="#FFA600" stroke="white" stroke-width="2"></path>
<path d="M13.2652 41.2909H10.1122V36.2133H7.17087L3.7389 41.2909H0L3.99002 35.7055C2.85533 35.4234 1.99036 34.9063 1.39511 34.154C0.818465 33.4018 0.530142 32.4427 0.530142 31.2767C0.530142 30.3552 0.678954 29.5842 0.976577 28.9636C1.2928 28.343 1.72064 27.8447 2.26008 27.4685C2.81812 27.0736 3.45057 26.8009 4.15743 26.6505C4.86428 26.5 5.62695 26.4248 6.44541 26.4248H13.2652V41.2909ZM10.1122 29.1047H6.66863C6.3152 29.1047 5.96177 29.1329 5.60834 29.1893C5.25491 29.2269 4.92939 29.3303 4.63177 29.4996C4.35274 29.65 4.12953 29.8663 3.96211 30.1484C3.7947 30.4305 3.71099 30.769 3.71099 31.1639C3.71099 31.2203 3.71099 31.2673 3.71099 31.3049C3.71099 31.7939 3.8505 32.2076 4.12953 32.5461C4.40855 32.8846 4.77128 33.1291 5.21771 33.2796C5.66415 33.4112 6.07338 33.4958 6.44541 33.5334C6.81744 33.5522 7.18947 33.5617 7.5615 33.5617H10.1122V29.1047Z" fill="#FFA600"></path>
<path fill-rule="evenodd" clip-rule="evenodd" d="M57.3761 1.01163C56.0205 0.471748 54.5212 0.201805 52.878 0.201805C51.2144 0.201805 49.6945 0.471748 48.3183 1.01163C46.9422 1.55152 45.7612 2.30943 44.7753 3.28538C43.7895 4.26133 43.0193 5.44492 42.4647 6.83617C41.9307 8.22741 41.6637 9.77439 41.6637 11.4771C41.6637 13.1798 41.9204 14.7268 42.4339 16.118C42.9679 17.5093 43.7176 18.7033 44.6829 19.7C45.6688 20.6759 46.8498 21.4338 48.2259 21.9737C49.602 22.5136 51.1425 22.7836 52.8472 22.7836C54.5109 22.7836 56.0205 22.5136 57.3761 21.9737C58.7522 21.4131 59.9332 20.6344 60.9191 19.6377C61.905 18.6202 62.6649 17.4158 63.1989 16.0246C63.733 14.6126 64 13.0656 64 11.3837C64 9.68095 63.7227 8.14435 63.1681 6.77387C62.6341 5.38263 61.8742 4.20942 60.8883 3.25423C59.923 2.27829 58.7522 1.53075 57.3761 1.01163ZM52.6627 4.90385C51.2711 4.90385 48.0194 7.54179 48.0194 12.7183C48.0194 19.0634 57.3257 19.1511 57.3201 12.9447C57.3201 7.55055 54.0543 4.90385 52.6627 4.90385ZM52.7499 10.1082C49.0521 10.1082 48.9874 15.6192 52.8231 15.6192L52.8203 15.6163C56.3014 15.6163 56.2929 10.1052 52.7499 10.1082Z" fill="#FFA600"></path>
</svg><style>@media (prefers-color-scheme: light) { :root { filter: none; } }
@media (prefers-color-scheme: dark) { :root { filter: none; } }
</style></svg>